<?xml version="1.0" encoding="UTF-8" standalone="no"?>
<svg width="500px" height="440px" viewBox="0 0 500 440" version="1.1" xmlns="http://www.w3.org/2000/svg" xmlns:xlink="http://www.w3.org/1999/xlink" xmlns:sketch="http://www.bohemiancoding.com/sketch/ns">
    <!-- Generator: Sketch 3.3.2 (12043) - http://www.bohemiancoding.com/sketch -->
    <title>calendar2</title>
    <desc>Created with Sketch.</desc>
    <defs></defs>
    <g id="Page-1" stroke="none" stroke-width="1" fill="none" fill-rule="evenodd" sketch:type="MSPage">
        <g id="calendar2" sketch:type="MSLayerGroup" fill="#FFFFFF">
            <path d="M0,80.0002553 C0,57.9087243 17.9057764,40 39.9930416,40 L460.006958,40 C482.094505,40 500,57.8989315 500,80.0002553 L500,399.999745 C500,422.091276 482.094224,440 460.006958,440 L39.9930416,440 C17.9054946,440 0,422.101068 0,399.999745 L0,80.0002553 Z M24,80.0040228 C24,68.9561061 32.958139,60 43.9974611,60 L455.002539,60 C466.046832,60 475,68.9461222 475,80.0040228 L475,400.995977 C475,412.043894 466.041861,421 455.002539,421 L43.9974611,421 C32.9531683,421 24,412.053878 24,400.995977 L24,80.0040228 Z" id="Rectangle-1" sketch:type="MSShapeGroup"></path>
            <rect id="Rectangle-3" sketch:type="MSShapeGroup" x="80" y="0" width="20" height="100" rx="10"></rect>
            <rect id="Rectangle-3-Copy-2" sketch:type="MSShapeGroup" x="180" y="0" width="20" height="100" rx="10"></rect>
            <rect id="Rectangle-3-Copy" sketch:type="MSShapeGroup" x="400" y="0" width="20" height="100" rx="10"></rect>
            <rect id="Rectangle-3-Copy-3" sketch:type="MSShapeGroup" x="300" y="0" width="20" height="100" rx="10"></rect>
            <rect id="Rectangle-7" sketch:type="MSShapeGroup" x="60" y="140" width="120" height="60"></rect>
            <rect id="Rectangle-7-Copy" sketch:type="MSShapeGroup" x="220" y="140" width="60" height="60"></rect>
            <rect id="Rectangle-7-Copy-6" sketch:type="MSShapeGroup" x="220" y="220" width="60" height="60"></rect>
            <rect id="Rectangle-7-Copy-11" sketch:type="MSShapeGroup" x="220" y="300" width="60" height="60"></rect>
            <rect id="Rectangle-7-Copy-5" sketch:type="MSShapeGroup" x="140" y="220" width="60" height="60"></rect>
            <rect id="Rectangle-7-Copy-10" sketch:type="MSShapeGroup" x="140" y="300" width="60" height="60"></rect>
            <rect id="Rectangle-7-Copy-4" sketch:type="MSShapeGroup" x="60" y="220" width="60" height="60"></rect>
            <rect id="Rectangle-7-Copy-9" sketch:type="MSShapeGroup" x="60" y="300" width="60" height="60"></rect>
            <rect id="Rectangle-7-Copy-2" sketch:type="MSShapeGroup" x="300" y="140" width="60" height="60"></rect>
            <rect id="Rectangle-7-Copy-7" sketch:type="MSShapeGroup" x="300" y="220" width="60" height="60"></rect>
            <rect id="Rectangle-7-Copy-12" sketch:type="MSShapeGroup" x="300" y="300" width="60" height="60"></rect>
            <rect id="Rectangle-7-Copy-3" sketch:type="MSShapeGroup" x="380" y="140" width="60" height="60"></rect>
            <rect id="Rectangle-7-Copy-8" sketch:type="MSShapeGroup" x="380" y="220" width="60" height="60"></rect>
            <rect id="Rectangle-7-Copy-13" sketch:type="MSShapeGroup" x="380" y="300" width="60" height="60"></rect>
        </g>
    </g>
</svg>