<?xml version="1.0" encoding="UTF-8" standalone="no"?>
<svg width="87px" height="87px" viewBox="0 0 87 87" version="1.1" xmlns="http://www.w3.org/2000/svg" xmlns:xlink="http://www.w3.org/1999/xlink" xmlns:sketch="http://www.bohemiancoding.com/sketch/ns">
    <!-- Generator: Sketch 3.3.2 (12043) - http://www.bohemiancoding.com/sketch -->
    <title>clock104</title>
    <desc>Created with Sketch.</desc>
    <defs></defs>
    <g id="Page-1" stroke="none" stroke-width="1" fill="none" fill-rule="evenodd" sketch:type="MSPage">
        <g id="Desktop-Landscape" sketch:type="MSArtboardGroup" transform="translate(-42.000000, -73.000000)" fill="#FFFFFF">
            <g id="clock104" sketch:type="MSLayerGroup" transform="translate(42.000000, 73.000000)">
                <g id="Group" sketch:type="MSShapeGroup">
                    <path d="M83.5273922,26.5664167 C78.9405588,15.8726667 71.146098,8.09540686 60.3630735,3.4964902 C54.9736225,1.19795588 49.3272941,0.0238823529 43.4284951,0.0238823529 C37.5306912,0.0238823529 31.9260147,1.18686765 26.5425343,3.4964902 C15.8487843,8.08318137 8.01977941,15.8554657 3.42484314,26.5664167 C1.12232843,31.9325539 0,37.5544314 0,43.4522353 C0,49.3511765 1.12232843,55.0196814 3.42484314,60.3869559 C8.01977941,71.0979069 15.8497794,78.9168186 26.5425343,83.5046471 C31.9270098,85.8142696 37.530549,86.9761176 43.4284951,86.9761176 C49.3264412,86.9761176 54.9736225,85.8020441 60.3622206,83.5046471 C71.1452451,78.9055882 78.9397059,71.0797108 83.5275343,60.3869559 C85.8370147,55.0024804 87,49.3511765 87,43.4522353 C87,37.5544314 85.8380098,31.95075 83.5273922,26.5664167 L83.5273922,26.5664167 Z M76.5833137,62.6702794 C73.1685637,68.5264314 68.4904657,73.1722598 62.5986324,76.6071961 C56.7424804,80.0219461 50.3259461,81.7440343 43.4294902,81.7440343 C38.2450294,81.7440343 33.2979706,80.7455245 28.5883137,78.6997451 C23.878799,76.6549608 19.8125441,73.9667745 16.4110147,70.5662402 C13.0094853,67.1647108 10.3021078,63.0587941 8.27765196,58.3411765 C6.25916667,53.6407598 5.28098529,48.6378333 5.28098529,43.4523775 C5.28098529,36.5549265 6.97563725,30.1709461 10.3711961,24.331 C13.7788382,18.4697304 18.4579314,13.8189265 24.3081127,10.3939412 C30.157299,6.96909804 36.5321814,5.25610784 43.4284951,5.25610784 C50.3259461,5.25610784 56.7413431,6.97919118 62.5976373,10.3939412 C68.4894706,13.8290196 73.1574755,18.4796814 76.5823186,24.3308578 C80.0071618,30.1810392 81.7191569,36.5549265 81.7191569,43.4522353 C81.7191569,50.3498284 80.0183922,56.7773088 76.5833137,62.6702794 L76.5833137,62.6702794 Z" id="Shape"></path>
                    <path d="M46.1876176,43.0718235 L46.1876176,18.4319167 C46.1876176,16.9574657 44.9029461,15.7681814 43.4283529,15.7681814 C42.0492892,15.7681814 40.8122402,16.9574657 40.8122402,18.4319167 L40.8122402,43.4522353 C40.8122402,43.5 40.9076275,43.6907745 40.9076275,43.8329314 C40.8122402,44.6892843 41.0507794,45.4027696 41.6211127,45.974098 L55.8443333,60.1963235 C56.7960735,61.1480637 58.5556912,61.1480637 59.5067206,60.1963235 C60.6004755,59.1024265 60.5285441,57.5152451 59.5067206,56.4861716 L46.1876176,43.0718235 L46.1876176,43.0718235 Z" id="Shape"></path>
                </g>
            </g>
        </g>
    </g>
</svg>