<?xml version="1.0" encoding="UTF-8" standalone="no"?>
<svg width="406px" height="406px" viewBox="0 0 406 406" version="1.1" xmlns="http://www.w3.org/2000/svg" xmlns:xlink="http://www.w3.org/1999/xlink" xmlns:sketch="http://www.bohemiancoding.com/sketch/ns">
    <!-- Generator: Sketch 3.3.2 (12043) - http://www.bohemiancoding.com/sketch -->
    <title>clock</title>
    <desc>Created with Sketch.</desc>
    <defs></defs>
    <g id="Page-1" stroke="none" stroke-width="1" fill="none" fill-rule="evenodd" sketch:type="MSPage">
        <g id="clock" sketch:type="MSLayerGroup" fill="#FFFFFF">
            <path d="M203,406 C315.113804,406 406,315.113804 406,203 C406,90.8861958 315.113804,0 203,0 C90.8861958,0 0,90.8861958 0,203 C0,315.113804 90.8861958,406 203,406 Z M203,392 C307.934102,392 393,307.381818 393,203 C393,98.6181823 307.934102,14 203,14 C98.0658975,14 13,98.6181823 13,203 C13,307.381818 98.0658975,392 203,392 Z" id="Oval-1" sketch:type="MSShapeGroup"></path>
            <rect id="Rectangle-1" sketch:type="MSShapeGroup" x="193" y="43" width="20" height="180" rx="20"></rect>
            <rect id="Rectangle-1-Copy-2" sketch:type="MSShapeGroup" transform="translate(166.806753, 144.031223) rotate(-207.000000) translate(-166.806753, -144.031223) " x="165.100094" y="73.6738957" width="3.41331809" height="140.714654" rx="20"></rect>
            <rect id="Rectangle-1-Copy" sketch:type="MSShapeGroup" transform="translate(251.723337, 240.761553) rotate(-59.000000) translate(-251.723337, -240.761553) " x="241.723337" y="178.261553" width="20" height="125" rx="20"></rect>
        </g>
    </g>
</svg>