<?xml version="1.0" encoding="UTF-8" standalone="no"?>
<svg width="103px" height="103px" viewBox="0 0 103 103" version="1.1" xmlns="http://www.w3.org/2000/svg" xmlns:xlink="http://www.w3.org/1999/xlink" xmlns:sketch="http://www.bohemiancoding.com/sketch/ns">
    <!-- Generator: Sketch 3.3.2 (12043) - http://www.bohemiancoding.com/sketch -->
    <title>calendar-icons</title>
    <desc>Created with Sketch.</desc>
    <defs></defs>
    <g id="Page-1" stroke="none" stroke-width="1" fill="none" fill-rule="evenodd" sketch:type="MSPage">
        <g id="Desktop-Landscape" sketch:type="MSArtboardGroup" transform="translate(-318.000000, -499.000000)" fill="#FFFFFF">
            <g id="calendar-icons" sketch:type="MSLayerGroup" transform="translate(318.000000, 499.000000)">
                <g id="calendar_1_" sketch:type="MSShapeGroup">
                    <path d="M94.4188125,9.65625 L80.46875,9.65625 L80.46875,3.21875 C80.46875,1.43878125 79.0299688,0 77.25,0 C75.4700312,0 74.03125,1.43878125 74.03125,3.21875 L74.03125,9.65625 L54.71875,9.65625 L54.71875,3.21875 C54.71875,1.43878125 53.27675,0 51.5,0 C49.72325,0 48.28125,1.43878125 48.28125,3.21875 L48.28125,9.65625 L28.96875,9.65625 L28.96875,3.21875 C28.96875,1.43878125 27.52675,0 25.75,0 C23.97325,0 22.53125,1.43878125 22.53125,3.21875 L22.53125,9.65625 L8.58440625,9.65625 C3.8431875,9.65625 0,13.4962187 0,18.2374375 L0,94.4155937 C0,99.1568125 3.8431875,103 8.58440625,103 L94.4188125,103 C99.1600312,103 103,99.1568125 103,94.4155937 L103,18.2374375 C103,13.4962187 99.1600312,9.65625 94.4188125,9.65625 L94.4188125,9.65625 Z M96.5625,94.4155937 C96.5625,95.6000937 95.6000937,96.5625 94.4188125,96.5625 L8.58440625,96.5625 C7.39990625,96.5625 6.4375,95.6000937 6.4375,94.4155937 L6.4375,18.2374375 C6.4375,17.0561563 7.39990625,16.09375 8.58440625,16.09375 L22.53125,16.09375 L22.53125,22.53125 C22.53125,24.3112188 23.97325,25.75 25.75,25.75 C27.52675,25.75 28.96875,24.3112188 28.96875,22.53125 L28.96875,16.09375 L48.28125,16.09375 L48.28125,22.53125 C48.28125,24.3112188 49.72325,25.75 51.5,25.75 C53.27675,25.75 54.71875,24.3112188 54.71875,22.53125 L54.71875,16.09375 L74.03125,16.09375 L74.03125,22.53125 C74.03125,24.3112188 75.4700312,25.75 77.25,25.75 C79.0299688,25.75 80.46875,24.3112188 80.46875,22.53125 L80.46875,16.09375 L94.4188125,16.09375 C95.6000937,16.09375 96.5625,17.0561563 96.5625,18.2374375 L96.5625,94.4155937 L96.5625,94.4155937 Z" id="Shape"></path>
                    <rect id="Rectangle-path" x="22.53125" y="38.625" width="12.875" height="9.65625"></rect>
                    <rect id="Rectangle-path" x="22.53125" y="54.71875" width="12.875" height="9.65625"></rect>
                    <rect id="Rectangle-path" x="22.53125" y="70.8125" width="12.875" height="9.65625"></rect>
                    <rect id="Rectangle-path" x="45.0625" y="70.8125" width="12.875" height="9.65625"></rect>
                    <rect id="Rectangle-path" x="45.0625" y="54.71875" width="12.875" height="9.65625"></rect>
                    <rect id="Rectangle-path" x="45.0625" y="38.625" width="12.875" height="9.65625"></rect>
                    <rect id="Rectangle-path" x="67.59375" y="70.8125" width="12.875" height="9.65625"></rect>
                    <rect id="Rectangle-path" x="67.59375" y="54.71875" width="12.875" height="9.65625"></rect>
                    <rect id="Rectangle-path" x="67.59375" y="38.625" width="12.875" height="9.65625"></rect>
                </g>
            </g>
        </g>
    </g>
</svg>