<?xml version="1.0" encoding="UTF-8" standalone="no"?>
<svg width="50px" height="72px" viewBox="0 0 50 72" version="1.1" xmlns="http://www.w3.org/2000/svg" xmlns:xlink="http://www.w3.org/1999/xlink" xmlns:sketch="http://www.bohemiancoding.com/sketch/ns">
    <!-- Generator: Sketch 3.3.2 (12043) - http://www.bohemiancoding.com/sketch -->
    <title>placeholders4</title>
    <desc>Created with Sketch.</desc>
    <defs></defs>
    <g id="Page-1" stroke="none" stroke-width="1" fill="none" fill-rule="evenodd" sketch:type="MSPage">
        <g id="Desktop-Landscape" sketch:type="MSArtboardGroup" transform="translate(-520.000000, -528.000000)" fill="#FFFFFF">
            <g id="placeholders4" sketch:type="MSLayerGroup" transform="translate(520.000000, 528.165001)">
                <path d="M49.4314062,20.0398368 C46.9875302,8.20963823 36.922403,0 25.0922045,0 C23.4267808,0 21.7703182,0.199116032 20.1048945,0.488739351 C13.5516292,1.75593098 7.98507262,5.47613893 4.26495428,11.0426955 C0.553886676,16.6183925 -0.821913701,23.2620754 0.553886676,29.905848 C1.43189697,34.3048606 3.19687868,38.4141603 4.85334126,41.8356045 C8.07566952,48.6784931 12.2845272,55.6208501 18.0502895,63.8304883 C19.3174811,65.5865089 20.5937235,67.3514906 21.9604731,69.1074216 C21.9604731,69.1074216 21.9604731,69.1074216 21.9604731,69.2069796 L22.2500964,69.596161 L22.3496544,69.695719 C23.0375994,70.5737293 24.0150781,70.9629106 24.9926464,70.9629106 C25.6805914,70.9629106 26.8482251,70.6732873 27.9252618,69.3970449 C31.8354454,64.310177 35.1573317,59.3319177 38.2891527,54.3446077 C41.810155,48.6784035 46.1096096,41.1476595 48.7526016,32.7389053 C50.1103005,28.4395403 50.3094165,24.1400857 49.4314062,20.0398368 L49.4314062,20.0398368 Z M45.2225485,31.6708297 C42.6791145,39.6904026 38.479218,46.9224725 35.1574213,52.3985219 C32.1251583,57.2862738 28.8033617,62.0744677 25.0922941,67.0617777 C25.0922941,67.0617777 25.0922941,67.1613357 24.9927361,67.1613357 L24.893178,66.9622197 C24.893178,66.9622197 24.893178,66.8626617 24.79362,66.8626617 L24.79362,66.8626617 C23.5264284,65.1067307 22.250186,63.3416594 20.9829944,61.5857284 C15.3167902,53.5661555 11.2074905,46.8229145 8.07566952,40.179142 C6.50980384,36.9568137 4.85334126,33.1371374 4.06592786,29.0368884 C2.88924352,23.3706842 4.06592786,17.5958712 7.19774884,12.9073249 C10.3295698,8.21877857 15.2173218,4.98730997 20.7838784,3.91027325 C22.250186,3.62064993 23.6169357,3.52109192 25.083333,3.52109192 C35.2481078,3.52109192 43.7564201,10.5630965 45.9015324,20.7277818 C46.6888562,24.2396437 46.3992329,27.9507113 45.2225485,31.6708297 L45.2225485,31.6708297 Z M24.7935304,13.0973902 C18.4394708,13.0973902 13.2620059,18.2747655 13.2620059,24.6289147 C13.2620059,30.9830639 18.4393812,36.1604392 24.7935304,36.1604392 C31.1476796,36.1604392 36.3250549,30.9830639 36.3250549,24.6289147 C36.3250549,18.2747655 31.14759,13.0973902 24.7935304,13.0973902 L24.7935304,13.0973902 Z M24.7935304,32.54884 C20.3945178,32.54884 16.8735155,29.0278377 16.8735155,24.6288251 C16.8735155,20.2298125 20.3945178,16.7088102 24.7935304,16.7088102 C29.192543,16.7088102 32.7135453,20.2298125 32.7135453,24.6288251 C32.7135453,29.0278377 29.1924534,32.54884 24.7935304,32.54884 L24.7935304,32.54884 Z" id="Shape" sketch:type="MSShapeGroup"></path>
            </g>
        </g>
    </g>
</svg>